<svg xmlns="http://www.w3.org/2000/svg" width="20.788" height="20.788" viewBox="0 0 20.788 20.788">
  <g id="Groupe_1860" data-name="Groupe 1860" transform="translate(-300 -74.721)">
    <g id="vuesax_outline_call" data-name="vuesax/outline/call" transform="translate(300 74.721)">
      <g id="call">
        <path id="Vector" d="M12.228,16.229a6.906,6.906,0,0,1-2.68-.6,14.172,14.172,0,0,1-2.71-1.555A23.562,23.562,0,0,1,4.3,11.911,22.551,22.551,0,0,1,2.129,9.375,14.087,14.087,0,0,1,.589,6.688,6.989,6.989,0,0,1,0,3.993,4.549,4.549,0,0,1,.309,2.325,4.032,4.032,0,0,1,1.321.861,2.741,2.741,0,0,1,3.276,0a2.041,2.041,0,0,1,.853.189A1.727,1.727,0,0,1,4.854.8L6.6,3.268a2.924,2.924,0,0,1,.362.642,1.7,1.7,0,0,1,.151.672,1.6,1.6,0,0,1-.242.83,3.02,3.02,0,0,1-.506.642l-.513.536a.368.368,0,0,0,.023.053A5.8,5.8,0,0,0,6.5,7.48c.37.423.717.808,1.064,1.162.445.438.815.785,1.162,1.072a4.916,4.916,0,0,0,.876.627l-.015.038.551-.543a2.819,2.819,0,0,1,.679-.521,1.593,1.593,0,0,1,1.472-.083,3.437,3.437,0,0,1,.634.355l2.506,1.781a1.622,1.622,0,0,1,.6.717,2.184,2.184,0,0,1,.166.815,2.518,2.518,0,0,1-.242,1.064,3.516,3.516,0,0,1-.6.906A3.871,3.871,0,0,1,13.912,15.9,4.457,4.457,0,0,1,12.228,16.229ZM3.276,1.132a1.655,1.655,0,0,0-1.17.543,2.9,2.9,0,0,0-.74,1.064,3.3,3.3,0,0,0-.234,1.253,5.82,5.82,0,0,0,.5,2.249A12.6,12.6,0,0,0,3.05,8.7,20.884,20.884,0,0,0,5.1,11.1,21.254,21.254,0,0,0,7.5,13.157a12.264,12.264,0,0,0,2.483,1.427,4.5,4.5,0,0,0,3.495.264,2.787,2.787,0,0,0,1.034-.747,2.448,2.448,0,0,0,.423-.634,1.337,1.337,0,0,0,.136-.581.9.9,0,0,0-.083-.377.571.571,0,0,0-.211-.226L12.274,10.5a2.164,2.164,0,0,0-.415-.234.4.4,0,0,0-.491.023,1.721,1.721,0,0,0-.438.34l-.574.566a1.076,1.076,0,0,1-1.095.226l-.2-.091a6.435,6.435,0,0,1-1.072-.762c-.362-.309-.755-.672-1.23-1.14-.37-.377-.74-.777-1.125-1.223a6.44,6.44,0,0,1-.77-1.064l-.091-.226a1.409,1.409,0,0,1-.06-.377A.969.969,0,0,1,5,5.835l.566-.589a2.186,2.186,0,0,0,.34-.423.484.484,0,0,0,.083-.257.7.7,0,0,0-.06-.242,2.165,2.165,0,0,0-.242-.4L3.933,1.449a.7.7,0,0,0-.279-.234A.945.945,0,0,0,3.276,1.132ZM9.669,10.5l-.2.4.2-.528C9.632,10.364,9.685,10.485,9.669,10.5Z" transform="translate(2.239 2.223)" fill="#02132b"/>
        <path id="Vector-2" data-name="Vector" d="M0,0H20.788V20.788H0Z" fill="none" opacity="0"/>
      </g>
    </g>
  </g>
</svg>
