<svg xmlns="http://www.w3.org/2000/svg" width="19.5" height="20.5" viewBox="0 0 19.5 20.5">
  <g id="delete" transform="translate(-2.25 -1.75)">
    <path id="Tracé_473" data-name="Tracé 473" d="M15.84,22.25H8.16a3.05,3.05,0,0,1-3-2.86L4.25,5.55A.76.76,0,0,1,4.45,5,.77.77,0,0,1,5,4.75H19a.75.75,0,0,1,.75.8l-.87,13.84a3.05,3.05,0,0,1-3.04,2.86Zm-10-16L6.61,19.3a1.55,1.55,0,0,0,1.55,1.45h7.68a1.56,1.56,0,0,0,1.55-1.45l.81-13Z" fill="#fff"/>
    <path id="Tracé_474" data-name="Tracé 474" d="M21,6.25H3a.75.75,0,1,1,0-1.5H21a.75.75,0,0,1,0,1.5Z" fill="#fff"/>
    <path id="Tracé_475" data-name="Tracé 475" d="M15,6.25H9a.76.76,0,0,1-.75-.75V3.7A2,2,0,0,1,10.2,1.75h3.6a2,2,0,0,1,1.95,2V5.5a.76.76,0,0,1-.75.75ZM9.75,4.75h4.5v-1a.45.45,0,0,0-.45-.45H10.2a.45.45,0,0,0-.45.45Z" fill="#fff"/>
    <path id="Tracé_476" data-name="Tracé 476" d="M15,18.25a.76.76,0,0,1-.75-.75v-8a.75.75,0,0,1,1.5,0v8A.76.76,0,0,1,15,18.25Z" fill="#fff"/>
    <path id="Tracé_477" data-name="Tracé 477" d="M9,18.25a.76.76,0,0,1-.75-.75v-8a.75.75,0,0,1,1.5,0v8A.76.76,0,0,1,9,18.25Z" fill="#fff"/>
    <path id="Tracé_478" data-name="Tracé 478" d="M12,18.25a.76.76,0,0,1-.75-.75v-8a.75.75,0,0,1,1.5,0v8A.76.76,0,0,1,12,18.25Z" fill="#fff"/>
  </g>
</svg>
