<svg xmlns="http://www.w3.org/2000/svg" width="21.229" height="21.228" viewBox="0 0 21.229 21.228">
  <g id="edit" transform="translate(0 -0.004)">
    <g id="Groupe_2059" data-name="Groupe 2059" transform="translate(0 1.52)">
      <g id="Groupe_2058" data-name="Groupe 2058">
        <path id="Tracé_937" data-name="Tracé 937" d="M17.437,43.235a.758.758,0,0,0-.758.758v7.581a.758.758,0,0,1-.758.758H2.274a.758.758,0,0,1-.758-.758V36.411a.758.758,0,0,1,.758-.758h9.1a.758.758,0,1,0,0-1.516h-9.1A2.274,2.274,0,0,0,0,36.411V51.574a2.274,2.274,0,0,0,2.274,2.274H15.921A2.274,2.274,0,0,0,18.2,51.574V43.993A.758.758,0,0,0,17.437,43.235Z" transform="translate(0 -34.137)" fill="#02132b"/>
      </g>
    </g>
    <g id="Groupe_2061" data-name="Groupe 2061" transform="translate(4.549 0.004)">
      <g id="Groupe_2060" data-name="Groupe 2060" transform="translate(0 0)">
        <path id="Tracé_938" data-name="Tracé 938" d="M118.238.854a2.9,2.9,0,0,0-4.1,0l-9.986,9.986a.766.766,0,0,0-.183.3l-1.516,4.549a.758.758,0,0,0,.719,1,.77.77,0,0,0,.24-.039l4.549-1.516a.758.758,0,0,0,.3-.183l9.986-9.986A2.9,2.9,0,0,0,118.238.854Zm-1.072,3.033-9.856,9.856-2.945.983.98-2.941,9.86-9.856a1.385,1.385,0,1,1,1.961,1.958Z" transform="translate(-102.409 -0.004)" fill="#02132b"/>
      </g>
    </g>
  </g>
</svg>
