<svg xmlns="http://www.w3.org/2000/svg" width="23.387" height="20.788" viewBox="0 0 23.387 20.788">
  <g id="vuesax_outline_video" data-name="vuesax/outline/video" transform="translate(-105 -252)">
    <g id="video" transform="translate(105 252)">
      <g id="Vector" transform="translate(16.023 5.1)" fill="#02132b">
        <path d="M3.984,10.586a2.448,2.448,0,0,1-1.395-.5L.277,8.464A.653.653,0,0,1,0,7.927V2.661a.653.653,0,0,1,.277-.537L2.59.5A2,2,0,0,1,4.729.175a2,2,0,0,1,.961,1.94V8.464a1.985,1.985,0,0,1-.961,1.94A1.514,1.514,0,0,1,3.984,10.586ZM1.308,7.581,3.343,9c.39.269.667.294.78.234s.251-.3.251-.771V2.124c0-.476-.139-.71-.251-.771s-.39-.035-.78.234L1.308,3.007Z" stroke="none"/>
        <path d="M 3.984403848648071 10.58622550964355 C 3.611953973770142 10.58622550964355 3.13555383682251 10.46496486663818 2.589863777160645 10.0838451385498 L 0.2771738767623901 8.464095115661621 C 0.1039438843727112 8.342835426330566 3.882522378262365e-06 8.143614768981934 3.882522378262365e-06 7.927064895629883 L 3.882522378262365e-06 2.660725116729736 C 3.882522378262365e-06 2.444185018539429 0.1039438843727112 2.244965076446533 0.2771738767623901 2.123695135116577 L 2.589863777160645 0.503955066204071 C 3.620614290237427 -0.2149751931428909 4.374183654785156 -0.007094861008226871 4.729313850402832 0.174805074930191 C 5.084444046020508 0.3653650879859924 5.6907639503479 0.8590850830078125 5.6907639503479 2.115035057067871 L 5.6907639503479 8.464095115661621 C 5.6907639503479 9.72004508972168 5.084444046020508 10.22243499755859 4.729313850402832 10.40432548522949 C 4.564743995666504 10.49960517883301 4.30488395690918 10.58622550964355 3.984403848648071 10.58622550964355 Z M 3.991060256958008 1.325664877891541 C 3.846570014953613 1.325664877891541 3.624230623245239 1.39323103427887 3.343433856964111 1.586665034294128 L 1.307923913002014 3.007194995880127 L 1.307923913002014 7.580595016479492 L 3.343433856964111 9.001125335693359 C 3.733213901519775 9.269644737243652 4.010393142700195 9.295626640319824 4.122993946075439 9.234994888305664 C 4.244254112243652 9.174355506896973 4.374183654785156 8.931835174560547 4.374183654785156 8.464095115661621 L 4.374183654785156 2.123695135116577 C 4.374183654785156 1.647305130958557 4.235593795776367 1.413435101509094 4.122993946075439 1.352805018424988 C 4.091510772705078 1.33585000038147 4.047140121459961 1.325664877891541 3.991060256958008 1.325664877891541 Z" stroke="none" fill="#02132b"/>
      </g>
      <path id="Vector-2" data-name="Vector" d="M0,0H20.788V20.788H0Z" transform="translate(2.599)" fill="none" opacity="0"/>
      <g id="Rectangle_1720" data-name="Rectangle 1720" transform="translate(0 2.599)" fill="none" stroke="#02132b" stroke-width="1.3">
        <rect width="17.323" height="15.158" rx="4" stroke="none"/>
        <rect x="0.65" y="0.65" width="16.023" height="13.858" rx="3.35" fill="none"/>
      </g>
    </g>
  </g>
</svg>
