<svg xmlns="http://www.w3.org/2000/svg" viewBox="103 419 812 186" fill="none">
<g transform="translate(0,1024) scale(0.1,-0.1)">
<path fill="#FFFFFF" fill-rule="evenodd" d="M4675 5923 c-27 -2 -54 -8 -59 -14 -6 -5 -20 -9 -33 -9 -13 0 -23 -4 -23 -10 0 -5 -9 -10 -20 -10 -11 0 -20 -4 -20 -10 0 -5 -9 -10 -20 -10 -11 0 -20 -4 -20 -8 0 -5 -12 -15 -27 -23 -36 -18 -133 -117 -133 -135 0 -8 -3 -14 -8 -14 -7 0 -35 -56 -59 -120 -16 -45 -17 -108 0 -123 23 -22 83 -37 149 -37 97 0 146 25 198 100 52 74 91 100 153 100 93 0 187 -97 187 -194 0 -70 -72 -166 -125 -166 -8 0 -15 -4 -15 -10 0 -5 -22 -10 -50 -10 -27 0 -50 -4 -50 -9 0 -5 -37 -12 -82 -15 -116 -7 -178 -16 -178 -27 0 -5 -9 -9 -19 -9 -11 0 -23 -4 -26 -10 -3 -5 -17 -10 -31 -10 -13 0 -24 -4 -24 -10 0 -5 -9 -10 -20 -10 -11 0 -20 -4 -20 -10 0 -5 -6 -10 -13 -10 -7 0 -23 -9 -35 -20 -12 -11 -26 -20 -32 -20 -18 0 -240 -227 -240 -244 0 -9 -4 -16 -9 -16 -5 0 -11 -8 -14 -17 -4 -10 -18 -37 -32 -61 -14 -23 -25 -51 -25 -62 0 -11 -4 -20 -10 -20 -5 0 -10 -9 -10 -20 0 -11 -5 -30 -12 -43 -25 -49 -28 -58 -28 -86 0 -17 -4 -33 -10 -36 -5 -3 -10 -23 -10 -43 0 -50 36 -92 78 -92 17 0 34 -5 38 -11 4 -7 22 -9 45 -5 22 3 58 9 82 12 62 8 82 21 101 67 9 23 21 50 27 59 5 10 9 27 9 38 0 11 5 20 10 20 6 0 10 11 10 24 0 14 5 28 10 31 6 3 10 15 10 26 0 10 5 19 10 19 6 0 10 7 10 15 0 23 83 117 148 167 149 117 412 142 585 57 22 -10 45 -19 53 -19 8 0 14 -4 14 -9 0 -5 9 -13 20 -16 52 -16 180 -174 180 -221 0 -8 5 -14 10 -14 6 0 10 -9 10 -19 0 -11 5 -23 10 -26 6 -3 10 -17 10 -31 0 -13 5 -24 10 -24 6 0 10 -11 10 -24 0 -14 5 -28 10 -31 6 -3 10 -13 10 -21 0 -28 47 -64 84 -64 19 0 38 -5 42 -11 7 -12 60 -8 141 9 64 14 76 28 69 81 -11 95 -18 131 -27 137 -5 3 -9 18 -9 35 0 16 -4 29 -10 29 -5 0 -10 14 -10 30 0 17 -4 30 -10 30 -5 0 -10 9 -10 20 0 11 -4 20 -10 20 -5 0 -10 9 -10 20 0 11 -4 20 -10 20 -5 0 -10 5 -10 11 0 23 -98 149 -155 200 -54 48 -81 69 -88 69 -4 0 -28 20 -52 45 -42 42 -45 48 -45 100 0 30 5 55 10 55 6 0 10 14 10 30 0 17 4 30 9 30 9 0 21 70 22 120 0 57 -14 160 -22 160 -5 0 -9 14 -9 30 0 17 -4 30 -10 30 -5 0 -10 9 -10 20 0 11 -4 20 -10 20 -5 0 -10 7 -10 15 0 19 -166 185 -185 185 -8 0 -15 5 -15 10 0 6 -9 10 -20 10 -11 0 -20 5 -20 10 0 6 -13 10 -29 10 -16 0 -31 4 -33 9 -4 10 -153 20 -223 14z"/>
<path fill="#FFFFFF" fill-rule="evenodd" d="M1214 5887 c-17 -6 -35 -21 -42 -36 -8 -19 -12 -233 -13 -753 -1 -727 -1 -727 25 -753 17 -17 36 -25 59 -25 18 0 38 -5 44 -11 7 -7 28 -9 55 -5 183 24 178 17 178 235 0 149 9 222 30 241 3 3 17 21 30 40 35 50 87 100 104 100 29 0 96 -99 96 -141 0 -10 5 -19 10 -19 6 0 10 -9 10 -20 0 -11 5 -20 10 -20 6 0 10 -9 10 -20 0 -11 5 -20 10 -20 6 0 10 -7 10 -15 0 -8 5 -24 10 -35 6 -11 15 -29 20 -40 6 -11 10 -27 10 -35 0 -8 5 -15 10 -15 6 0 10 -9 10 -20 0 -11 5 -20 10 -20 6 0 10 -7 10 -15 0 -9 9 -25 20 -37 11 -12 20 -28 20 -35 0 -7 3 -13 8 -13 4 0 13 -13 20 -30 8 -18 21 -30 33 -30 10 0 19 -4 19 -10 0 -17 337 -13 343 4 8 20 -3 86 -14 86 -5 0 -9 8 -9 18 0 10 -9 24 -20 32 -11 8 -20 20 -20 28 0 7 -9 22 -20 34 -11 12 -20 28 -20 35 0 7 -4 13 -10 13 -5 0 -10 6 -10 13 0 7 -9 23 -20 35 -11 12 -20 26 -20 32 0 6 -9 20 -20 32 -11 12 -20 28 -20 35 0 7 -4 13 -9 13 -5 0 -14 14 -21 30 -7 17 -16 30 -20 30 -4 0 -10 8 -13 18 -7 20 -37 71 -54 89 -6 7 -15 22 -18 33 -3 11 -11 20 -16 20 -5 0 -9 9 -9 19 0 11 -3 21 -7 23 -11 4 -73 128 -73 144 0 8 -4 14 -10 14 -5 0 -10 14 -10 30 0 17 5 30 10 30 6 0 10 9 10 20 0 11 5 20 10 20 6 0 10 9 10 20 0 11 4 20 8 20 5 0 15 12 23 28 8 15 24 37 37 50 12 13 22 27 22 32 0 5 15 24 33 42 18 18 43 49 57 68 13 19 36 46 50 60 14 14 37 41 50 60 14 19 37 48 52 64 16 16 28 34 28 40 0 6 9 18 20 26 11 8 20 22 20 32 0 10 5 18 10 18 6 0 10 14 10 30 0 23 -4 30 -20 30 -11 0 -20 4 -20 10 0 10 -215 5 -307 -7 -41 -5 -123 -67 -123 -93 0 -5 -10 -19 -22 -32 -13 -13 -29 -35 -37 -50 -8 -16 -18 -28 -23 -28 -4 0 -8 -8 -8 -18 0 -10 -9 -24 -20 -32 -11 -8 -20 -20 -20 -28 0 -7 -9 -22 -20 -34 -11 -12 -20 -28 -20 -35 0 -7 -4 -13 -10 -13 -5 0 -10 -6 -10 -12 0 -7 -11 -26 -25 -42 -13 -16 -27 -37 -30 -47 -4 -11 -10 -19 -15 -19 -5 0 -11 -9 -15 -19 -9 -29 -78 -101 -96 -101 -24 0 -28 55 -22 300 7 245 1 279 -49 305 -36 17 -203 19 -254 2z"/>
<path fill="#FFFFFF" fill-rule="evenodd" d="M2793 5887 c-33 -11 -43 -25 -63 -94 -9 -28 -10 -61 -5 -105 11 -87 12 -1121 1 -1185 -6 -34 -5 -62 2 -80 6 -15 13 -40 16 -55 4 -19 13 -28 26 -28 10 0 22 -4 25 -10 4 -6 127 -10 336 -10 213 0 329 4 329 10 0 6 6 10 14 10 8 0 17 8 19 18 29 108 29 111 17 164 -20 91 -25 96 -94 102 -66 6 -195 21 -265 32 -25 3 -50 12 -57 18 -27 27 -33 309 -19 879 5 207 4 287 -4 287 -6 0 -11 9 -11 20 0 16 -7 20 -30 20 -16 0 -30 5 -30 10 0 13 -165 11 -207 -3z"/>
<path fill="#FFFFFF" fill-rule="evenodd" d="M6044 5887 c-37 -18 -46 -46 -46 -137 -2 -168 13 -176 304 -166 106 4 213 7 238 8 60 1 132 -12 147 -28 23 -23 12 -72 -24 -112 -7 -7 -13 -16 -13 -20 0 -4 -20 -29 -45 -57 -25 -27 -45 -55 -45 -62 0 -7 -4 -13 -8 -13 -5 0 -15 -12 -23 -27 -8 -16 -21 -35 -29 -43 -8 -8 -21 -27 -29 -42 -8 -16 -18 -28 -23 -28 -4 0 -8 -6 -8 -12 0 -7 -14 -29 -30 -48 -16 -19 -30 -40 -30 -45 0 -6 -9 -17 -20 -25 -11 -8 -20 -21 -20 -30 0 -9 -9 -22 -20 -30 -11 -8 -20 -19 -20 -25 0 -5 -14 -26 -30 -45 -16 -19 -30 -40 -30 -45 0 -6 -9 -17 -20 -25 -11 -8 -20 -19 -20 -25 0 -5 -14 -26 -30 -45 -16 -19 -30 -41 -30 -47 0 -7 -3 -13 -8 -13 -4 0 -18 -18 -32 -40 -14 -22 -28 -40 -32 -40 -5 0 -8 -9 -8 -19 0 -11 -3 -21 -7 -23 -5 -1 -18 -23 -30 -46 -33 -63 -32 -154 1 -187 25 -25 25 -25 548 -29 288 -2 530 -4 538 -5 32 -3 104 12 114 23 28 30 36 61 36 135 0 44 -4 83 -10 86 -5 3 -10 15 -10 26 0 12 -7 19 -20 19 -11 0 -20 5 -20 10 0 13 -432 14 -476 1 -18 -5 -48 -5 -70 0 -22 5 -51 11 -66 14 -24 5 -28 10 -28 40 0 19 5 35 10 35 6 0 10 8 10 18 0 10 9 24 20 32 11 8 20 19 20 25 0 5 14 26 30 45 16 19 30 38 30 43 0 4 14 21 30 39 17 17 30 37 30 44 0 8 4 14 8 14 4 0 15 12 24 28 9 15 28 41 42 57 14 17 26 36 26 43 0 6 4 12 8 12 5 0 15 12 23 28 8 15 22 34 31 43 10 9 18 20 18 25 0 5 14 25 30 44 16 19 30 41 30 48 0 6 4 12 8 12 5 0 15 12 23 28 8 15 17 29 20 32 3 3 25 34 49 70 24 36 47 67 52 68 4 2 8 9 8 16 0 7 8 21 18 32 9 10 23 31 31 47 8 15 18 27 23 27 4 0 8 9 8 20 0 11 5 20 10 20 6 0 10 11 10 24 0 14 5 28 10 31 14 9 13 106 -2 136 -8 18 -25 29 -52 36 -58 15 -1124 15 -1152 0z"/>
<path fill="#FFFFFF" fill-rule="evenodd" d="M7643 5888 c-18 -9 -23 -19 -23 -50 0 -21 5 -38 10 -38 6 0 10 -9 10 -20 0 -11 5 -20 10 -20 6 0 10 -7 10 -15 0 -9 9 -25 20 -37 11 -12 20 -28 20 -35 0 -7 4 -13 8 -13 4 0 19 -22 33 -50 13 -27 27 -50 32 -50 4 0 7 -9 7 -20 0 -11 5 -20 10 -20 6 0 10 -9 10 -20 0 -11 5 -20 10 -20 6 0 10 -9 10 -19 0 -11 3 -21 8 -23 7 -3 45 -69 67 -115 5 -13 13 -23 18 -23 4 0 7 -9 7 -20 0 -11 3 -20 8 -20 4 0 15 -17 24 -37 17 -38 49 -94 58 -103 3 -3 11 -15 18 -27 6 -13 18 -33 25 -45 6 -13 14 -25 17 -28 3 -3 15 -23 27 -46 41 -75 53 -154 54 -369 1 -258 6 -272 85 -287 105 -18 131 -20 138 -9 4 6 23 11 42 11 41 0 64 19 64 52 0 13 5 29 11 35 8 8 9 37 4 90 -12 140 -2 363 16 363 5 0 9 14 9 30 0 17 5 30 10 30 6 0 10 7 10 15 0 8 4 23 9 33 5 9 23 46 42 82 18 36 38 75 43 87 6 13 14 23 19 23 4 0 7 9 7 20 0 11 3 20 8 20 4 0 12 10 17 23 15 31 59 111 65 117 3 3 11 15 18 28 6 12 18 32 25 45 6 12 14 24 17 27 10 10 41 65 47 83 3 9 9 17 14 17 5 0 9 9 9 20 0 11 3 20 8 20 4 0 18 23 31 50 14 28 29 50 33 50 4 0 8 8 8 18 0 10 9 24 20 32 11 8 20 22 20 32 0 10 3 18 8 18 4 0 12 17 19 37 13 43 0 63 -41 63 -14 0 -28 5 -31 10 -3 6 -50 10 -105 10 -55 0 -102 -4 -105 -10 -3 -5 -25 -10 -49 -10 -42 0 -76 -21 -76 -48 0 -7 -4 -12 -8 -12 -5 0 -19 -21 -32 -47 -12 -27 -26 -56 -31 -65 -5 -10 -9 -25 -9 -33 0 -8 -4 -15 -10 -15 -5 0 -10 -9 -10 -20 0 -11 -4 -20 -10 -20 -5 0 -10 -11 -10 -24 0 -14 -4 -28 -10 -31 -5 -3 -10 -15 -10 -26 0 -10 -4 -19 -10 -19 -5 0 -10 -7 -10 -15 0 -8 -4 -24 -10 -35 -5 -11 -14 -29 -20 -40 -5 -11 -10 -27 -10 -35 0 -8 -4 -15 -10 -15 -5 0 -10 -9 -10 -20 0 -11 -4 -20 -10 -20 -5 0 -10 -6 -10 -12 0 -18 -44 -68 -59 -68 -7 0 -18 6 -24 13 -18 18 -57 97 -57 113 0 8 -4 14 -10 14 -5 0 -10 9 -10 19 0 11 -10 39 -21 63 -12 23 -25 52 -30 63 -23 60 -125 260 -150 295 -17 23 -37 40 -48 40 -11 0 -22 4 -26 9 -8 13 -275 12 -302 -1z"/>
<path fill="#D0A37B" fill-rule="evenodd" d="M5548 5601 c-75 -38 -108 -90 -108 -170 0 -34 6 -71 13 -83 20 -36 74 -88 91 -88 9 0 16 -4 16 -10 0 -6 27 -10 60 -10 78 0 160 43 160 84 0 9 4 16 8 16 4 0 14 20 21 45 11 37 11 53 0 90 -7 25 -17 45 -21 45 -4 0 -8 7 -8 16 0 24 -53 64 -85 64 -8 0 -15 5 -15 10 0 17 -93 10 -132 -9z"/>
</g>
</svg>
