<svg xmlns="http://www.w3.org/2000/svg" width="25.244" height="25.244" viewBox="0 0 25.244 25.244">
  <g id="vuesax_twotone_setting-4" data-name="vuesax/twotone/setting-4" transform="translate(-428 -188)">
    <g id="setting-4" transform="translate(428 188)">
      <path id="Vector" d="M6.311,0H0" transform="translate(16.829 6.837)" fill="none" stroke="#02132b" stroke-linecap="round" stroke-linejoin="round" stroke-width="1.5"/>
      <g id="Group_633" data-name="Group 633" transform="translate(2.104 3.156)" opacity="0.4">
        <path id="Vector-2" data-name="Vector" d="M4.207,0H0" transform="translate(0 3.681)" fill="none" stroke="#02132b" stroke-linecap="round" stroke-linejoin="round" stroke-width="1.5"/>
        <path id="Vector-3" data-name="Vector" d="M7.363,3.681A3.681,3.681,0,1,1,3.681,0,3.681,3.681,0,0,1,7.363,3.681Z" transform="translate(4.733)" fill="none" stroke="#02132b" stroke-linecap="round" stroke-linejoin="round" stroke-width="1.5"/>
      </g>
      <path id="Vector-4" data-name="Vector" d="M6.311,0H0" transform="translate(2.104 18.407)" fill="none" stroke="#02132b" stroke-linecap="round" stroke-linejoin="round" stroke-width="1.5"/>
      <g id="Group_634" data-name="Group 634" transform="translate(11.044 14.726)" opacity="0.4">
        <path id="Vector-5" data-name="Vector" d="M4.207,0H0" transform="translate(7.889 3.681)" fill="none" stroke="#02132b" stroke-linecap="round" stroke-linejoin="round" stroke-width="1.5"/>
        <path id="Vector-6" data-name="Vector" d="M7.363,3.681A3.681,3.681,0,1,1,3.681,0,3.681,3.681,0,0,1,7.363,3.681Z" fill="none" stroke="#02132b" stroke-linecap="round" stroke-linejoin="round" stroke-width="1.5"/>
      </g>
      <path id="Vector-7" data-name="Vector" d="M0,0H25.244V25.244H0Z" fill="none" opacity="0"/>
    </g>
  </g>
</svg>
