<svg id="upload" xmlns="http://www.w3.org/2000/svg" width="25.37" height="21.205" viewBox="0 0 25.37 21.205">
  <path id="Tracé_225" data-name="Tracé 225" d="M20.29,10.124a6.775,6.775,0,0,0-13.143-.008,6.784,6.784,0,0,0,.636,13.537h2.544a.848.848,0,1,0,0-1.7H7.783a5.088,5.088,0,0,1-.03-10.175.88.88,0,0,0,.933-.724,5.08,5.08,0,0,1,10.058,0,.916.916,0,0,0,.91.724,5.088,5.088,0,1,1,0,10.175H17.111a.848.848,0,0,0,0,1.7h2.544a6.784,6.784,0,0,0,.636-13.53Z" transform="translate(-0.997 -4.993)" fill="#9299a4"/>
  <path id="Tracé_226" data-name="Tracé 226" d="M18.728,18.687a.848.848,0,1,0,1.2-1.2l-4.24-4.24a.848.848,0,0,0-1.2,0l-4.24,4.24a.848.848,0,1,0,1.2,1.2l2.792-2.792V26.567a.848.848,0,0,0,1.7,0V15.895Z" transform="translate(-2.366 -6.211)" fill="#9299a4"/>
</svg>
