<svg id="exclamation" xmlns="http://www.w3.org/2000/svg" width="21.512" height="21.512" viewBox="0 0 21.512 21.512">
  <g id="Groupe_726" data-name="Groupe 726">
    <g id="Groupe_725" data-name="Groupe 725">
      <path id="Tracé_495" data-name="Tracé 495" d="M10.756,0A10.756,10.756,0,1,0,21.512,10.756,10.75,10.75,0,0,0,10.756,0Zm0,19.831a9.075,9.075,0,1,1,9.075-9.075A9.07,9.07,0,0,1,10.756,19.831Z" fill="#eb5353"/>
    </g>
  </g>
  <g id="Groupe_728" data-name="Groupe 728" transform="translate(9.916 5.415)">
    <g id="Groupe_727" data-name="Groupe 727">
      <path id="Tracé_496" data-name="Tracé 496" d="M236.84,128.877a.84.84,0,0,0-.84.84v5.411a.84.84,0,0,0,1.681,0v-5.411A.84.84,0,0,0,236.84,128.877Z" transform="translate(-236 -128.877)" fill="#eb5353"/>
    </g>
  </g>
  <g id="Groupe_730" data-name="Groupe 730" transform="translate(9.621 13.536)">
    <g id="Groupe_729" data-name="Groupe 729">
      <circle id="Ellipse_47" data-name="Ellipse 47" cx="1.134" cy="1.134" r="1.134" fill="#eb5353"/>
    </g>
  </g>
</svg>
